<?xml version="1.0" standalone="no"?>
<!DOCTYPE svg PUBLIC "-//W3C//DTD SVG 20010904//EN"
 "http://www.w3.org/TR/2001/REC-SVG-20010904/DTD/svg10.dtd">
<svg version="1.0" xmlns="http://www.w3.org/2000/svg"
 width="500.000000pt" height="500.000000pt" viewBox="0 0 500.000000 500.000000"
 preserveAspectRatio="xMidYMid meet">

<g transform="translate(0.000000,500.000000) scale(0.100000,-0.100000)"
fill="#000000" stroke="none">
<path d="M2328 4383 c-14 -4 -18 -16 -19 -61 0 -31 -3 -75 -8 -97 l-7 -40 -23
70 c-33 100 -43 113 -80 107 -17 -2 -34 -8 -36 -12 -5 -8 27 -243 41 -308 4
-18 10 -23 32 -20 29 3 29 4 19 83 -8 57 3 51 28 -18 20 -54 27 -61 55 -52 17
5 20 16 21 68 0 66 12 58 24 -15 5 -32 10 -38 30 -38 13 0 26 4 29 8 4 8 -18
178 -39 300 -6 33 -19 38 -67 25z"/>
<path d="M2610 4362 c-24 -24 -30 -39 -30 -73 0 -28 -6 -46 -17 -55 -15 -11
-16 -15 -4 -23 10 -6 12 -21 7 -55 -11 -71 21 -115 82 -116 48 0 84 39 80 88
-3 32 -6 37 -28 37 -20 0 -26 -6 -30 -30 -6 -33 -34 -45 -44 -19 -8 20 12 186
24 198 15 15 40 -2 40 -28 0 -16 7 -27 20 -31 29 -9 40 2 40 40 0 43 -34 83
-77 91 -27 5 -37 1 -63 -24z"/>
<path d="M2821 4338 c-26 -71 -74 -299 -65 -308 6 -6 36 -16 68 -22 48 -11 59
-10 67 2 16 26 5 43 -31 53 -19 5 -36 10 -38 11 -1 2 12 63 29 136 26 109 29
134 18 141 -23 15 -39 10 -48 -13z"/>
<path d="M1983 4310 c-26 -10 -43 -39 -43 -72 0 -38 61 -211 83 -235 41 -45
118 -23 140 40 4 10 -9 67 -28 127 -45 139 -79 169 -152 140z m55 -62 c5 -7
22 -52 38 -100 22 -69 25 -91 16 -100 -10 -10 -15 -9 -26 2 -19 21 -69 177
-62 195 7 18 20 19 34 3z"/>
<path d="M2986 4139 c-81 -132 -87 -144 -70 -156 20 -14 44 -17 44 -5 0 4 8
17 18 30 12 16 23 21 36 16 14 -5 16 -14 11 -45 -6 -32 -3 -39 15 -49 13 -7
26 -8 31 -3 5 5 24 78 43 163 38 166 37 172 -14 185 -24 6 -32 -4 -114 -136z
m74 -21 c0 -19 -18 -43 -25 -36 -4 3 -2 16 5 27 12 24 20 27 20 9z"/>
<path d="M1778 4219 c-32 -16 -58 -35 -58 -42 0 -26 18 -40 44 -33 24 6 28 1
86 -114 33 -66 66 -120 73 -120 6 0 19 5 27 10 13 8 6 27 -43 125 -31 63 -57
122 -57 130 0 8 7 18 16 23 21 12 10 52 -14 52 -9 -1 -43 -14 -74 -31z"/>
<path d="M3243 4165 c-37 -26 -46 -74 -28 -143 19 -74 19 -77 -2 -97 -15 -16
-17 -16 -29 -1 -6 9 -10 25 -7 36 3 12 -3 22 -16 30 -27 14 -38 7 -46 -31 -9
-40 8 -72 50 -95 68 -37 134 26 120 115 -4 25 -8 66 -9 91 -1 38 2 45 19 45
12 0 21 -9 25 -25 4 -18 13 -25 30 -25 21 0 26 6 28 32 6 65 -78 108 -135 68z"/>
<path d="M1576 4105 c-65 -60 -20 -143 91 -164 72 -14 87 -22 91 -50 4 -23
-16 -28 -47 -11 -24 12 -57 -11 -48 -34 10 -26 66 -46 97 -34 43 16 60 39 60
78 0 61 -65 110 -146 110 -31 0 -69 33 -61 53 5 12 14 15 35 11 19 -4 32 -1
42 11 12 15 11 19 -10 36 -34 26 -72 24 -104 -6z"/>
<path d="M3420 4030 c-32 -32 -40 -64 -33 -134 4 -46 2 -70 -7 -81 -22 -26
-40 -18 -40 18 0 62 -42 77 -60 22 -14 -43 -7 -68 27 -95 37 -29 79 -26 114 9
27 28 29 34 29 109 0 93 5 112 31 112 14 0 19 -7 19 -29 0 -21 6 -32 21 -36
44 -14 54 61 14 100 -31 32 -86 34 -115 5z"/>
<path d="M1448 3999 c-10 -6 -18 -16 -18 -23 0 -6 38 -53 85 -103 80 -86 105
-133 71 -133 -7 0 -55 44 -106 97 -76 79 -95 94 -109 86 -9 -6 -17 -16 -18
-24 -2 -8 41 -60 95 -117 86 -91 101 -102 131 -102 45 0 91 42 91 82 0 28 -69
116 -161 205 -35 34 -47 40 -61 32z"/>
<path d="M3510 3805 c-98 -98 -113 -118 -104 -133 6 -9 16 -17 21 -17 5 0 63
51 128 113 99 95 117 116 108 130 -5 9 -16 18 -24 20 -8 1 -66 -49 -129 -113z"/>
<path d="M1245 3784 c-36 -39 -33 -82 8 -121 60 -57 168 -133 188 -133 48 0
88 39 89 84 0 34 -43 86 -71 86 -28 0 -33 -36 -8 -61 19 -19 20 -23 5 -37 -14
-14 -22 -10 -93 45 -49 37 -78 67 -78 79 0 13 6 18 20 16 48 -8 58 -6 69 11 9
15 7 21 -14 37 -37 29 -86 26 -115 -6z"/>
<path d="M3585 3740 c-102 -81 -105 -84 -105 -128 0 -40 40 -82 78 -82 24 0
92 38 92 51 0 3 -6 14 -14 25 -13 16 -18 17 -35 7 -28 -18 -61 -16 -61 2 0 17
144 135 165 135 23 0 24 -24 2 -48 l-21 -22 23 -23 22 -22 30 33 c36 40 38 80
4 116 -42 45 -77 37 -180 -44z"/>
<path d="M2635 3679 c-16 -6 -53 -7 -81 -4 -39 4 -53 1 -57 -9 -6 -14 -76 -31
-113 -27 -28 3 -61 -28 -43 -40 10 -5 5 -11 -16 -19 -24 -9 -35 -8 -58 5 -21
12 -40 15 -81 10 -32 -4 -62 -3 -74 4 -37 20 -152 -114 -152 -178 0 -17 -6
-21 -36 -21 -31 0 -37 -4 -50 -35 -27 -66 -12 -138 34 -161 22 -11 22 -11 4
-35 -11 -13 -22 -34 -26 -46 -4 -13 -11 -23 -15 -23 -5 0 -20 -27 -34 -59 -14
-32 -29 -61 -34 -64 -4 -3 -35 6 -68 19 -52 22 -74 25 -168 23 -59 -1 -110 -6
-113 -11 -13 -21 18 -31 95 -29 61 2 81 -1 81 -11 0 -10 -19 -13 -72 -12 -40
0 -89 -3 -108 -8 -19 -5 -46 -11 -60 -14 -48 -10 -136 -68 -198 -131 -34 -35
-62 -70 -62 -78 0 -8 -4 -15 -8 -15 -5 0 -16 -19 -26 -42 -9 -24 -21 -50 -26
-59 -29 -55 -39 -310 -14 -351 5 -7 10 -22 11 -33 2 -10 9 -23 16 -27 6 -4 9
-8 4 -8 -7 0 13 -40 47 -95 26 -41 125 -135 142 -135 8 0 14 -4 14 -9 0 -11
80 -44 145 -59 45 -10 194 -6 245 8 54 14 130 50 130 62 0 4 7 8 15 8 9 0 18
7 21 15 4 8 11 15 18 15 6 0 20 10 31 23 79 86 137 198 155 298 10 57 14 65
33 65 18 -1 23 5 25 36 8 96 -58 303 -124 386 l-43 56 35 66 c39 74 75 104 98
79 7 -8 21 -45 31 -84 10 -38 27 -89 37 -113 18 -41 18 -45 3 -86 -26 -67 -16
-83 68 -110 24 -8 18 -40 -8 -44 -37 -7 -45 -22 -45 -91 l0 -66 96 -82 c108
-94 87 -88 292 -76 107 6 113 7 118 30 4 12 12 23 19 23 7 0 15 5 17 11 2 6
25 11 51 11 26 1 50 5 53 9 2 4 17 1 32 -7 15 -7 40 -14 55 -14 15 0 37 -9 49
-19 16 -16 24 -17 38 -9 12 8 29 8 51 2 27 -8 39 -20 58 -59 35 -72 136 -168
202 -193 84 -31 176 -37 250 -16 77 22 161 96 206 181 28 53 49 117 45 135 -1
4 2 18 8 32 6 17 5 26 -3 29 -9 3 -8 8 2 21 10 12 11 20 3 28 -6 6 -8 24 -5
39 3 16 1 29 -4 29 -6 0 -8 11 -5 25 2 15 0 25 -8 25 -7 0 -9 8 -5 19 3 10 0
25 -8 33 -7 7 -12 18 -10 24 2 6 -3 17 -12 24 -8 7 -15 19 -15 26 0 7 -27 41
-60 75 -33 34 -60 63 -60 65 0 2 14 11 30 19 28 15 31 14 36 -2 8 -30 68 -144
80 -154 11 -9 190 14 202 25 2 3 -8 40 -24 82 l-27 76 -54 -4 c-54 -5 -74 5
-54 25 34 34 -6 87 -67 87 -24 0 -42 9 -67 35 -55 55 -88 67 -173 66 -124 -2
-200 -18 -263 -57 -55 -33 -149 -125 -149 -146 0 -5 -19 6 -41 26 -27 23 -56
37 -84 41 -55 9 -64 15 -75 54 -9 32 -8 32 20 29 16 -1 37 5 47 13 10 9 46 19
82 23 48 4 71 12 96 33 19 16 32 33 31 38 -2 6 3 22 10 36 11 23 11 29 -1 39
-11 9 -25 8 -62 -4 -26 -8 -82 -20 -123 -25 -41 -6 -91 -15 -110 -21 -19 -5
-51 -10 -70 -10 -20 0 -41 -5 -46 -10 -7 -7 -22 -1 -48 20 -73 57 -243 120
-328 120 -20 0 -40 5 -43 10 -3 6 -28 10 -56 10 -37 0 -53 -5 -66 -20 -10 -11
-26 -20 -36 -20 -28 0 -12 37 35 79 22 20 48 52 59 72 10 20 41 65 69 100 52
66 96 95 116 78 13 -11 94 -1 94 11 0 6 83 21 135 24 6 1 10 12 10 26 0 28
-16 33 -60 19z m-315 -133 c0 -3 -4 -8 -10 -11 -5 -3 -10 -1 -10 4 0 6 5 11
10 11 6 0 10 -2 10 -4z m-93 -112 c-3 -3 -12 -4 -19 -1 -8 3 -5 6 6 6 11 1 17
-2 13 -5z m-324 -59 c-3 -9 -8 -14 -10 -11 -3 3 -2 9 2 15 9 16 15 13 8 -4z
m127 -159 c0 -7 -8 -20 -17 -27 -15 -12 -16 -12 -10 4 4 10 7 23 7 28 0 5 5 9
10 9 6 0 10 -6 10 -14z m123 -225 l-6 -25 -9 23 c-9 25 -1 48 13 34 5 -5 6
-19 2 -32z m112 -5 c36 -12 40 -18 43 -50 3 -29 7 -36 24 -36 15 0 19 -5 15
-20 -3 -11 0 -20 6 -20 18 0 -15 -20 -33 -20 -12 0 -73 95 -98 152 -5 10 -4
10 43 -6z m500 -65 c34 -25 70 -51 81 -58 18 -11 17 -12 -7 -12 -15 -1 -32 6
-40 15 -8 10 -23 14 -42 11 -24 -3 -34 4 -67 42 -25 29 -35 48 -28 52 16 10
34 1 103 -50z m555 -6 c19 -12 10 -33 -16 -38 -24 -4 -26 -3 -20 25 3 17 6 42
7 57 1 25 1 24 10 -6 5 -18 14 -35 19 -38z m-1640 45 c0 -5 -4 -10 -10 -10 -5
0 -10 5 -10 10 0 6 5 10 10 10 6 0 10 -4 10 -10z m707 -10 c-14 -11 -27 -20
-30 -20 -3 0 -3 9 0 20 4 13 14 20 31 20 l25 0 -26 -20z m269 -1 c18 -20 18
-20 -11 -14 -17 4 -37 14 -45 21 -12 12 -11 14 11 14 14 0 34 -9 45 -21z
m-886 -30 c0 -12 -43 6 -48 20 -3 9 2 9 22 0 14 -7 26 -16 26 -20z m1166 -42
c-17 -6 -36 -2 -63 12 -76 39 -74 47 6 22 69 -22 77 -27 57 -34z m-700 2 c14
-28 24 -52 22 -54 -2 -1 -17 -10 -34 -18 l-31 -16 -16 53 c-20 61 -21 69 -7
61 6 -3 13 1 16 9 10 27 23 18 50 -35z m428 28 c11 -8 15 -19 10 -30 -10 -27
-31 -20 -36 13 -5 33 0 36 26 17z m526 -47 c0 -13 -5 -18 -14 -14 -8 3 -12 12
-9 20 8 21 23 17 23 -6z m405 -10 c-3 -5 -12 -7 -20 -3 -21 7 -19 13 6 13 11
0 18 -4 14 -10z m-2094 -57 c1 -17 2 -17 6 0 5 20 53 24 54 5 0 -10 2 -10 6 0
7 18 33 15 34 -5 1 -17 2 -17 6 0 2 9 9 17 14 17 5 0 9 -8 10 -17 0 -11 3 -13
6 -5 7 17 38 15 53 -3 11 -13 8 -26 -16 -77 -42 -89 -62 -112 -83 -96 -13 10
-14 10 -3 -2 22 -25 13 -38 -30 -45 -40 -7 -74 -32 -95 -70 -9 -16 -14 -17
-27 -6 -8 7 -20 28 -26 47 -7 19 -15 32 -19 29 -5 -2 -16 4 -26 15 -16 17 -16
20 -2 20 8 0 17 -4 19 -10 2 -6 8 -6 18 0 13 8 12 10 -2 10 -10 0 -18 4 -18 9
0 5 -8 7 -19 4 -26 -7 -79 62 -65 85 16 25 30 25 42 0 10 -21 10 -21 6 8 -6
34 15 60 41 50 9 -3 15 0 15 9 0 20 38 29 57 13 14 -11 16 -11 9 1 -5 8 -3 17
5 22 21 13 29 11 30 -8z m1664 7 c-3 -5 -10 -10 -16 -10 -5 0 -9 5 -9 10 0 6
7 10 16 10 8 0 12 -4 9 -10z m-769 -33 c-3 -20 -17 -37 -30 -37 -10 0 -36 39
-36 53 0 2 15 1 34 -1 19 -2 33 -9 32 -15z m-86 -48 c0 -9 -14 -22 -31 -30
-28 -11 -33 -10 -45 6 -22 30 -16 50 19 67 30 15 33 14 44 -6 7 -11 12 -28 13
-37z m1126 1 c0 -24 -20 -21 -24 3 -2 9 3 17 10 17 8 0 14 -9 14 -20z m-63 -8
c24 -26 50 -93 40 -103 -4 -4 -15 -4 -23 1 -8 6 -10 10 -3 10 8 0 8 6 0 25
-17 35 -27 31 -21 -7 5 -29 1 -35 -25 -50 -29 -16 -31 -16 -31 0 0 9 -3 34 -7
55 -6 37 -5 38 23 35 29 -3 31 2 19 35 -9 22 7 22 28 -1z m185 -37 c52 -45 64
-110 22 -117 -13 -2 -17 -7 -12 -16 6 -9 14 -7 31 9 26 24 27 24 36 -14 6 -24
5 -26 -11 -21 -15 5 -14 3 4 -10 35 -27 29 -61 -13 -73 -19 -6 -34 -8 -33 -4
7 26 -19 99 -43 125 -21 22 -29 41 -29 67 0 20 -3 52 -7 70 -6 32 -5 33 13 19
10 -8 30 -23 42 -35z m-1144 6 c3 -5 -1 -12 -10 -15 -20 -8 -29 -1 -19 13 8
13 22 14 29 2z m-546 -47 c9 -16 8 -26 -5 -45 l-17 -24 22 19 c17 15 22 16 24
5 2 -24 5 -33 15 -59 9 -22 8 -26 -11 -31 -21 -5 -21 -5 2 -11 17 -5 22 -13
22 -37 0 -18 -5 -31 -12 -32 -10 0 -10 -2 0 -6 18 -7 15 -50 -5 -62 -10 -6
-12 -11 -5 -11 14 0 17 -40 2 -40 -5 0 -7 -6 -5 -12 3 -7 1 -20 -4 -28 -8 -12
-13 -11 -33 5 l-23 20 19 -22 c23 -27 15 -73 -14 -80 -11 -3 -17 -9 -14 -15
10 -16 -17 -39 -40 -32 -18 6 -19 5 -8 -9 11 -13 10 -17 -8 -27 -12 -6 -23
-10 -24 -8 -2 2 -8 12 -14 23 -9 17 -10 15 -9 -15 2 -29 -1 -35 -18 -35 -11 0
-25 -6 -31 -13 -5 -8 -21 -12 -34 -10 -18 2 -27 14 -41 53 -10 28 -18 45 -18
39 -1 -6 6 -31 14 -54 19 -53 19 -50 -9 -50 -17 0 -28 8 -35 28 l-11 27 5 -27
c5 -25 2 -28 -20 -28 -17 0 -25 6 -26 18 0 10 -3 12 -6 5 -2 -7 -16 -13 -29
-13 -28 0 -24 13 21 65 l26 30 -5 -35 -6 -35 14 35 c8 23 15 30 18 20 3 -8 3
-2 1 13 -3 15 1 35 9 44 7 9 12 18 11 20 -7 9 -2 23 6 18 5 -3 13 0 17 6 4 8
3 9 -4 5 -7 -4 -12 -1 -12 6 -1 7 -9 -2 -19 -21 l-18 -33 -11 57 c-13 63 -10
74 12 55 9 -6 32 -12 53 -12 21 0 32 -3 26 -5 -7 -3 -13 -10 -13 -16 1 -7 9
-2 19 11 11 12 25 22 33 22 12 0 42 42 60 83 9 20 19 22 37 5 11 -10 13 -10 7
0 -4 6 -2 12 5 12 8 0 8 4 -1 15 -10 12 -10 18 1 32 13 15 12 15 -8 3 -16 -11
-19 -17 -11 -27 8 -10 6 -13 -7 -13 -14 0 -15 6 -10 33 13 57 85 189 106 194
16 5 19 11 14 31 -5 21 -4 22 8 11 8 -8 19 -24 25 -35z m884 29 c52 -5 56 -7
60 -34 5 -29 4 -29 -49 -29 -46 0 -53 3 -51 18 2 14 -6 18 -49 20 -42 2 -55 8
-64 24 -11 21 -10 21 42 14 30 -4 79 -10 111 -13z m-1448 -18 c17 -26 17 -26
-11 -19 -41 10 -45 14 -32 30 16 20 24 18 43 -11z m1023 -1 c-3 -3 -12 -4 -19
-1 -8 3 -5 6 6 6 11 1 17 -2 13 -5z m-632 -75 c-13 -24 -25 -39 -25 -32 0 19
43 98 47 86 2 -5 -8 -30 -22 -54z m1549 46 c3 -8 1 -15 -4 -15 -6 0 -10 7 -10
15 0 8 2 15 4 15 2 0 6 -7 10 -15z m-1889 -37 c16 -18 33 -32 38 -30 5 1 6 -1
3 -6 -3 -5 1 -18 9 -28 21 -28 19 -31 -35 -59 -40 -20 -55 -23 -70 -15 -11 6
-20 8 -20 6 0 -3 9 -10 20 -16 15 -8 31 -5 71 16 41 21 53 23 60 12 7 -11 9
-10 9 1 0 8 2 12 5 9 21 -21 -53 -76 -83 -62 -10 4 -33 8 -52 10 -102 8 -120
14 -120 40 0 28 10 30 50 9 41 -21 38 -11 -5 14 -34 20 -43 43 -26 69 6 11 19
10 71 -3 34 -9 64 -14 67 -11 2 2 -20 10 -50 17 -75 16 -82 21 -67 49 18 34
85 22 125 -22z m1915 -40 c0 -4 -9 -8 -20 -8 -20 0 -28 29 -13 44 7 7 33 -21
33 -36z m-295 -58 c3 -5 -1 -10 -10 -10 -9 0 -13 5 -10 10 3 6 8 10 10 10 2 0
7 -4 10 -10z m675 -66 c0 -9 -8 -14 -17 -13 -33 3 -35 -1 -12 -19 15 -13 20
-25 15 -37 -6 -17 -7 -17 -26 0 -11 10 -20 24 -20 31 0 7 -6 14 -12 17 -7 2 3
11 22 20 45 20 50 20 50 1z m-2410 -1 l33 -6 -34 -18 c-45 -24 -49 -23 -49 6
0 27 2 28 50 18z m200 -7 c0 -13 -29 -31 -37 -22 -4 4 25 36 33 36 2 0 4 -6 4
-14z m-80 -15 c0 -4 -36 -26 -80 -50 l-80 -42 0 30 c0 26 6 34 46 54 42 21
114 26 114 8z m1924 -13 c15 -25 -11 -48 -46 -41 -29 5 -45 42 -25 55 19 13
59 5 71 -14z m-1863 -2 c8 4 8 0 0 -14 -18 -35 -12 -39 10 -7 11 17 19 24 17
16 -2 -8 6 -24 19 -37 39 -39 29 -59 -27 -56 -8 0 -23 -4 -33 -10 -17 -8 -18
-7 -13 14 5 18 3 17 -11 -7 -13 -22 -25 -30 -43 -28 l-25 2 24 -7 c23 -7 23
-8 -17 -35 -49 -32 -58 -33 -71 -10 -8 15 -4 20 27 30 l37 11 -40 -5 c-37 -4
-42 -2 -53 22 -7 15 -10 30 -7 34 4 3 41 27 83 52 58 34 81 44 95 37 9 -5 22
-6 28 -2z m933 8 c19 -7 21 -34 3 -34 -14 0 -37 20 -37 32 0 10 13 10 34 2z
m1265 -86 c-7 -12 -17 -17 -26 -14 -13 5 -14 4 -4 -8 13 -16 7 -36 -10 -36
-15 0 -28 44 -15 52 8 6 7 8 -1 8 -14 0 -17 37 -7 65 6 14 12 11 40 -16 27
-26 31 -35 23 -51z m-88 23 c-7 -5 -9 -10 -3 -12 5 -2 13 -15 17 -29 8 -24 7
-24 -18 -7 -35 23 -36 22 -26 -20 15 -65 12 -86 -11 -80 -11 3 -20 1 -20 -3 0
-14 -102 -8 -107 7 -3 7 -9 11 -13 8 -5 -3 -15 2 -23 10 -9 8 -20 15 -26 15
-6 0 -18 12 -28 28 -10 15 -24 34 -32 42 -10 10 -10 15 -2 18 18 6 43 -7 36
-18 -6 -9 17 -4 40 9 6 3 15 6 20 6 6 1 9 7 7 13 -2 10 2 10 19 1 31 -16 135
-7 156 14 9 9 19 14 22 11 3 -3 -1 -9 -8 -13z m-2025 -98 c11 -65 11 -92 2
-90 -4 1 -25 -18 -46 -42 -35 -41 -39 -43 -60 -30 -12 8 -22 23 -22 34 0 14
-3 16 -8 7 -12 -18 -42 -4 -42 20 0 10 7 33 16 49 8 17 14 33 11 35 -2 2 -12
-14 -22 -36 -19 -43 -25 -46 -43 -28 -20 20 -15 26 57 73 75 50 83 53 74 28
-5 -12 -1 -11 15 5 37 37 59 29 68 -25z m2044 0 c0 -20 -16 -40 -25 -32 -2 2
-6 21 -10 42 -7 38 -7 38 14 25 11 -7 21 -23 21 -35z"/>
<path d="M1496 2728 c4 -7 8 -28 7 -48 0 -28 0 -30 4 -7 4 25 7 27 21 15 15
-11 15 -10 0 8 -10 11 -18 26 -18 32 0 7 -5 12 -11 12 -5 0 -7 -5 -3 -12z"/>
<path d="M1350 2665 c0 -5 5 -17 10 -25 5 -8 10 -10 10 -5 0 6 -5 17 -10 25
-5 8 -10 11 -10 5z"/>
<path d="M1507 2623 c-9 -9 -9 -63 1 -63 4 0 7 16 8 35 1 38 0 38 -9 28z"/>
<path d="M1828 2503 c6 -2 18 -2 25 0 6 3 1 5 -13 5 -14 0 -19 -2 -12 -5z"/>
<path d="M1774 2478 l-19 -23 23 19 c21 18 27 26 19 26 -2 0 -12 -10 -23 -22z"/>
<path d="M1760 2377 c0 -11 39 -47 50 -47 6 0 25 -7 42 -16 16 -9 28 -11 24
-6 -3 5 -20 15 -38 22 -18 7 -43 22 -55 33 -13 11 -23 17 -23 14z"/>
<path d="M1676 2204 c12 -11 24 -26 28 -34 4 -10 5 -9 3 4 -1 10 -13 25 -27
34 l-25 14 21 -18z"/>
<path d="M1368 2523 c7 -3 16 -2 19 1 4 3 -2 6 -13 5 -11 0 -14 -3 -6 -6z"/>
<path d="M1453 2318 c3 -9 1 -19 -6 -21 -7 -2 -10 -7 -7 -10 3 -3 12 0 21 6
15 11 15 14 1 27 -14 13 -15 12 -9 -2z"/>
<path d="M3430 2285 c0 -5 5 -17 10 -25 5 -8 10 -10 10 -5 0 6 -5 17 -10 25
-5 8 -10 11 -10 5z"/>
<path d="M3406 2207 c3 -10 9 -15 12 -12 3 3 0 11 -7 18 -10 9 -11 8 -5 -6z"/>
<path d="M1401 2189 c-6 -18 -9 -34 -7 -36 2 -2 9 10 15 28 6 18 9 34 7 36 -2
2 -9 -10 -15 -28z"/>
<path d="M2290 3590 c-8 -5 -10 -10 -5 -10 6 0 17 5 25 10 8 5 11 10 5 10 -5
0 -17 -5 -25 -10z"/>
<path d="M1120 3331 c-8 -21 -21 -31 -46 -35 -39 -8 -42 -16 -13 -42 16 -14
20 -28 17 -56 -4 -42 0 -45 40 -24 23 12 31 12 52 0 39 -21 46 -17 42 24 -3
28 1 42 17 56 29 26 26 34 -14 42 -26 4 -40 15 -51 35 -18 37 -28 37 -44 0z"/>
<path d="M3836 3331 c-11 -20 -25 -31 -51 -35 -40 -8 -43 -16 -14 -42 16 -14
20 -28 17 -56 -4 -41 3 -45 42 -24 21 12 29 12 52 0 40 -21 44 -18 40 24 -3
28 1 42 17 56 29 26 26 34 -14 42 -26 4 -40 15 -51 35 -8 16 -17 29 -19 29 -2
0 -11 -13 -19 -29z"/>
<path d="M1297 1805 c-14 -28 -22 -35 -46 -35 -41 0 -45 -13 -15 -41 21 -20
24 -29 19 -61 -8 -43 -6 -44 35 -23 27 14 33 14 60 0 41 -21 43 -20 36 23 -5
33 -2 42 19 62 29 27 24 40 -16 40 -24 0 -32 7 -46 35 -9 19 -20 35 -23 35 -3
0 -14 -16 -23 -35z"/>
<path d="M3657 1805 c-14 -28 -22 -35 -46 -35 -40 0 -45 -13 -16 -40 21 -20
24 -29 19 -62 -7 -43 -5 -44 36 -23 27 14 33 14 60 0 41 -21 43 -20 35 23 -5
32 -2 41 19 61 30 28 26 41 -15 41 -24 0 -32 7 -46 35 -9 19 -20 35 -23 35 -3
0 -14 -16 -23 -35z"/>
<path d="M1632 1710 c-19 -33 -40 -60 -49 -60 -10 0 -13 -6 -9 -17 4 -10 -6
-41 -25 -76 -25 -48 -29 -61 -18 -68 25 -16 38 -9 64 34 l27 42 -7 -35 c-13
-63 -11 -84 9 -88 12 -3 29 9 48 33 38 46 47 39 16 -14 -20 -36 -21 -43 -8
-51 28 -18 40 -10 67 44 14 30 35 57 45 59 12 3 16 11 12 21 -3 9 8 40 26 72
17 31 30 57 28 58 -47 30 -61 36 -67 29 -68 -83 -104 -123 -107 -120 -2 2 7
37 21 77 14 40 25 76 25 80 0 5 -53 40 -62 40 -2 0 -18 -27 -36 -60z"/>
<path d="M3273 1739 c-29 -17 -53 -35 -53 -41 0 -17 143 -258 153 -258 5 0 34
14 63 31 47 27 53 33 44 50 -13 23 -22 24 -60 4 -27 -14 -30 -14 -44 7 -21 29
-20 36 5 56 13 12 18 23 13 35 -5 15 -14 17 -43 12 -33 -5 -39 -3 -49 20 -16
34 -17 30 23 54 31 18 34 23 25 41 -14 26 -15 25 -77 -11z"/>
<path d="M3096 1647 c-16 -12 -13 -22 45 -150 34 -75 65 -137 69 -137 4 0 33
11 64 25 53 24 56 26 45 48 -6 12 -13 23 -14 25 -2 2 -17 -4 -35 -13 -18 -9
-34 -15 -36 -13 -2 2 -26 53 -53 113 -28 61 -54 111 -59 113 -4 1 -16 -4 -26
-11z"/>
<path d="M1891 1623 c-21 -19 -91 -190 -91 -224 0 -31 44 -69 80 -69 43 0 70
33 104 129 36 102 36 128 2 158 -32 27 -66 29 -95 6z m63 -51 c2 -4 -10 -45
-27 -92 -22 -57 -38 -86 -49 -88 -24 -5 -23 14 3 85 12 32 26 68 30 81 8 21
33 30 43 14z"/>
<path d="M2973 1605 c-49 -21 -51 -51 -12 -172 28 -88 38 -107 62 -119 50 -26
107 7 107 62 0 48 -9 64 -36 64 -22 0 -24 -4 -22 -35 5 -77 -32 -51 -62 43
-12 37 -23 72 -25 78 -2 6 1 17 6 25 8 11 14 8 33 -15 20 -24 26 -26 44 -17
18 10 20 15 10 41 -5 17 -23 37 -39 45 -33 18 -26 18 -66 0z"/>
<path d="M2046 1574 c-10 -25 -7 -34 9 -34 28 0 27 -26 -4 -141 -31 -117 -30
-128 10 -129 13 0 23 27 46 118 27 110 31 117 55 120 16 2 28 11 31 23 6 23 2
25 -60 44 -62 19 -79 19 -87 -1z"/>
<path d="M2858 1573 c-11 -3 -20 -18 -23 -41 -4 -20 -8 -41 -9 -46 -1 -5 -12
7 -24 27 -15 27 -28 37 -46 37 -14 0 -27 -3 -30 -8 -2 -4 17 -43 44 -87 31
-51 52 -100 60 -138 11 -59 29 -78 54 -58 11 9 11 22 1 70 -9 46 -9 77 0 147
7 49 10 92 8 97 -4 7 -7 7 -35 0z"/>
<path d="M2230 1532 c-18 -14 -26 -37 -36 -98 -20 -122 -18 -151 12 -181 20
-20 31 -24 57 -19 18 4 40 14 49 24 23 22 52 210 38 246 -17 46 -80 61 -120
28z m64 -50 c5 -8 -7 -113 -20 -169 -5 -24 -30 -31 -36 -11 -4 11 3 68 17 156
6 30 27 43 39 24z"/>
<path d="M2586 1519 c-29 -23 -32 -58 -17 -193 6 -54 12 -73 30 -87 56 -45
121 -9 121 67 0 41 -2 45 -22 42 -16 -2 -24 -12 -28 -33 -6 -37 -37 -46 -44
-13 -3 13 -7 57 -8 98 -3 64 -1 75 14 78 12 2 19 -5 24 -22 4 -19 13 -26 30
-26 20 0 24 5 24 30 0 38 -39 80 -73 80 -13 0 -36 -9 -51 -21z"/>
<path d="M2380 1488 c0 -24 -3 -94 -7 -156 l-6 -114 29 4 c28 3 29 6 32 56 4
67 22 65 37 -4 9 -44 13 -49 39 -52 l29 -4 -8 44 c-9 45 -9 61 1 169 5 62 4
68 -17 83 -15 10 -44 16 -76 16 l-53 0 0 -42z m98 -61 c-2 -24 -8 -33 -25 -35
-21 -3 -23 1 -23 36 0 46 6 55 32 41 14 -8 18 -19 16 -42z"/>
<path d="M1862 848 c-32 -41 -24 -76 35 -141 28 -32 32 -41 22 -53 -11 -14
-15 -13 -30 7 -18 24 -49 21 -49 -6 0 -46 81 -72 113 -37 30 33 21 78 -24 127
-25 28 -39 51 -35 60 7 19 22 19 30 0 7 -20 35 -19 43 0 14 39 -77 76 -105 43z"/>
<path d="M2007 854 c-4 -4 -7 -63 -7 -131 l0 -123 25 0 26 0 -3 127 c-3 106
-6 128 -18 131 -9 1 -19 0 -23 -4z"/>
<path d="M2080 731 c0 -124 1 -131 20 -131 18 0 20 7 20 57 0 64 8 63 31 -5
13 -39 20 -48 43 -50 l27 -3 -3 128 c-3 120 -4 128 -23 128 -17 0 -20 -8 -23
-60 l-4 -60 -21 60 c-17 46 -27 61 -45 63 -22 3 -22 3 -22 -127z"/>
<path d="M2270 840 c-17 -17 -20 -33 -20 -113 0 -104 13 -129 66 -129 35 0 55
22 57 63 2 28 -2 35 -20 37 -19 3 -23 -1 -23 -22 0 -30 -14 -41 -29 -22 -18
22 -10 151 9 151 8 0 16 -10 18 -23 3 -17 9 -22 25 -20 48 7 7 98 -44 98 -10
0 -28 -9 -39 -20z"/>
<path d="M2405 847 c-3 -7 -4 -65 -3 -128 l3 -114 58 -3 c52 -3 57 -1 57 18 0
13 -7 20 -19 20 -34 0 -51 12 -51 35 0 17 7 25 23 27 14 2 23 11 25 26 3 18
-1 22 -22 22 -22 0 -26 4 -26 30 0 28 3 30 36 30 31 0 35 3 32 23 -3 19 -10
22 -56 25 -37 2 -54 -1 -57 -11z"/>
<path d="M2655 834 l-30 -25 23 -16 c20 -14 22 -23 22 -104 0 -83 1 -89 20
-89 20 0 20 5 18 127 -2 73 -7 128 -13 129 -5 2 -23 -8 -40 -22z"/>
<path d="M2762 844 c-18 -12 -22 -25 -22 -68 0 -58 19 -86 58 -86 15 0 22 -6
22 -19 0 -27 -15 -34 -30 -16 -16 19 -39 19 -47 0 -8 -22 25 -55 54 -55 57 0
63 12 63 120 0 87 -3 103 -20 120 -24 24 -48 25 -78 4z m53 -72 c0 -46 -19
-44 -23 2 -3 28 0 37 10 34 7 -3 13 -19 13 -36z"/>
<path d="M2897 853 c-4 -3 -7 -15 -7 -25 0 -14 8 -18 35 -18 21 0 35 -5 35
-12 0 -7 -11 -55 -24 -105 l-24 -93 23 0 c21 0 25 10 51 113 15 63 24 121 21
130 -5 13 -19 17 -55 17 -27 0 -52 -3 -55 -7z"/>
<path d="M3054 846 c-16 -12 -19 -25 -17 -73 3 -60 18 -83 55 -83 11 0 18 -7
18 -19 0 -26 -18 -37 -26 -17 -10 26 -44 20 -44 -7 0 -32 18 -47 56 -47 50 0
64 28 64 126 0 67 -4 86 -21 108 -23 29 -55 33 -85 12z m54 -73 c-3 -42 -21
-51 -26 -15 -4 29 4 52 18 52 7 0 10 -15 8 -37z"/>
</g>
</svg>
